<svg height="496pt" viewBox="-1 0 496 496" width="496pt" xmlns="http://www.w3.org/2000/svg" xmlns:xlink="http://www.w3.org/1999/xlink"><linearGradient id="a" gradientUnits="userSpaceOnUse" x1="246.5592" x2="246.5592" y1="496" y2="0"><stop offset="0" stop-color="#9f2fff"/><stop offset="1" stop-color="#0bb1d3"/></linearGradient><path d="m461.121094 176h-128v-16h128zm-16 16h-112v16h112zm-40-64h88v112h-192v-48h-77.28125l-98.71875 75.9375v36.0625h56v80h-56v49.136719c13.757812 3.574219 24 15.992187 24 30.863281 0 17.648438-14.351563 32-32 32-17.648438 0-32-14.351562-32-32 0-14.871094 10.238281-27.289062 24-30.863281v-49.136719h-56v-80h56v-36.0625l-109.121094-83.9375 109.121094-83.9375v-37.199219c-13.761719-3.574219-24-15.992187-24-30.863281 0-17.648438 14.351562-32 32-32 14.863281 0 27.285156 10.230469 30.863281 24h257.136719zm-288 320c-8.824219 0-16 7.175781-16 16s7.175781 16 16 16c8.824218 0 16-7.175781 16-16s-7.175782-16-16-16zm48-128h-96v48h96zm-48-272c8.824218 0 16-7.175781 16-16s-7.175782-16-16-16c-8.824219 0-16 7.175781-16 16s7.175781 16 16 16zm90.878906 136-90.878906-69.902344-90.882813 69.902344 90.882813 69.902344zm93.121094-8v-48h88v-88h-241.136719c-2.914063 11.191406-11.671875 19.953125-22.863281 22.863281v37.199219l98.71875 75.9375zm176-32h-160v80h160zm-8 296h-256v-144h256zm-16-128h-224v112h224zm-192 16h-16v16h16zm176 0h-160v16h160zm0 32h-160v16h160zm-176 0h-16v16h16zm0 32h-16v16h16zm176 0h-160v16h160zm0 0" fill="url(#a)"/></svg>